<svg id="Camada_1" data-name="Camada 1" xmlns="http://www.w3.org/2000/svg" viewBox="0 0 40.14 49.04"><path d="M4.94,25c0-6.18,0-12.37,0-18.56C5,1.81,6.42.5,11.34.48c5.41,0,6.94,1.19,7,5.77q.06,18.74,0,37.49c0,4.58-1.56,5.8-7,5.78-4.92,0-6.38-1.34-6.4-6C4.91,37.37,4.94,31.19,4.94,25Z" transform="translate(-4.93 -0.48)"/><path d="M45.06,25c0,6.31,0,12.62,0,18.93,0,4.41-1.57,5.64-6.72,5.64s-6.61-1.28-6.62-5.73Q31.64,25,31.7,6.3c0-4.63,1.51-5.84,6.91-5.82,5,0,6.41,1.32,6.44,5.92C45.09,12.58,45.06,18.77,45.06,25Z" transform="translate(-4.93 -0.48)"/></svg>