<svg version="1.1" id="Camada_1" xmlns="http://www.w3.org/2000/svg" xmlns:xlink="http://www.w3.org/1999/xlink" x="0px" y="0px" viewBox="0 0 45 50" style="enable-background:new 0 0 45 50;" xml:space="preserve">
    <g>
        <path d="M4.29,0.46c0.38,0,0.77,0,1.15,0c0.99,0.57,2.04,0.96,3.03,1.53c10.82,6.21,21.65,12.41,32.46,18.64c0.78,0.45,1.53,1,2.17,1.63c1.75,1.73,1.82,3.95,0.28,5.86c-0.68,0.83-1.54,1.43-2.46,1.95c-10.81,6.2-21.62,12.41-32.44,18.59c-0.78,0.45-1.64,0.8-2.51,1.04C3.76,50,1.75,48.93,0.88,46.67c-0.4-1.05-0.49-2.14-0.49-3.25c0-12.28,0-24.57,0-36.85c0-0.49,0.02-0.99,0.07-1.48c0.16-1.34,0.57-2.58,1.57-3.56C2.67,0.92,3.46,0.65,4.29,0.46z"/>
    </g>
</svg>
