<svg id="Camada_1" data-name="Camada 1" xmlns="http://www.w3.org/2000/svg" viewBox="0 0 49.11 49.22">
  <path d="M11,10.25c1.9,0,3-.05,4.15,0a2,2,0,0,1,2.16,2.19,1.94,1.94,0,0,1-2.05,2c-3.55.06-7.11,0-10.67.06-1,0-1.15-.45-1.15-1.29,0-3.39,0-6.77,0-10.15,0-1.47.68-2.47,2.19-2.43S7.72,1.76,7.7,3.2c0,1.25,0,2.49,0,4.11a44.74,44.74,0,0,1,6.74-4.39,24.58,24.58,0,0,1,32.15,33.6c-4.65,9-15.21,14.58-24.83,13.08C10.71,47.87,2.51,40.08.68,29.53a33.06,33.06,0,0,1-.43-4C.17,24.11.86,23.1,2.39,23.1c1.38,0,2,.93,2.11,2.26a37.61,37.61,0,0,0,.61,4.75,20.29,20.29,0,1,0,24-24.73C22.54,4,16.79,5.64,11,10.25Z" transform="translate(-0.24 -0.63)"/>
</svg>