<svg id="Camada_1" data-name="Camada 1" xmlns="http://www.w3.org/2000/svg" viewBox="0 0 100.09 99.77"><path d="M1,1.8C1,3.7,96.8,100,98.8,100c3,0,.7-4.1-6.3-11l-7.4-7.4,4-4.4a47.6,47.6,0,0,0,7.2-11c2.9-6.1,3.2-7.5,3.1-16.2,0-12.4-2.5-18.8-10.2-27.1-5.3-5.8-12.3-10.5-13.6-9.2-1.5,1.5-.3,3.2,4.5,6.3A34.18,34.18,0,0,1,94,38.9c4,12.6,1.7,24-6.8,34.6-3.9,4.8-5,5-8.3,1.9l-2.8-2.7,2.8-3.6c4.5-5.8,6.3-10.1,6.8-16.6.6-7.2-.7-12.8-4.5-18.3C78.1,29.5,70.6,23.5,69,24.5c-1.9,1.2-.9,3,3.4,6.2,10.8,7.9,12.5,24.9,3.7,35.4l-3,3.4-3.7-3.7-3.7-3.6L68.3,59c3.3-3.9,4.1-6.9,3.2-11.7-1.1-6.3-9.8-12.9-12-9.3-.3.5.9,1.9,2.8,3,6.1,3.6,7.4,9.9,3.1,15l-2.7,3.1-4.3-4.2L54,50.6V30.5c0-16.5-.3-20.4-1.6-22.3C49.5,4,46.5,5.3,36.6,15l-9.2,9L15.5,12C3.7.2,1-1.7,1,1.8Z" transform="translate(0 -0.23)"/><path d="M20.7,30.7c-.4.3-.7,9-.7,19.3V68.6L32.8,81.3C42.7,91,46.3,94,48.3,94c4.8,0,5.7-2.9,5.7-18.5v-14L38.2,45.7C29.6,37.1,22.2,30,21.9,30A1.91,1.91,0,0,0,20.7,30.7Z" transform="translate(0 -0.23)"/><path d="M2,34C.2,35.8,0,37.3,0,50,0,67.1.5,68,10,68h6V32H10C5.3,32,3.6,32.4,2,34Z" transform="translate(0 -0.23)"/></svg>