<svg version="1.1" id="Camada_1" xmlns="http://www.w3.org/2000/svg" xmlns:xlink="http://www.w3.org/1999/xlink" x="0px" y="0px"
	 viewBox="0 0 46.41 40.69" style="enable-background:new 0 0 46.41 40.69;" xml:space="preserve">
<g>
	<path class="st0" d="M45.42,26.15c-1.42,4.27-4.31,7.89-8.15,10.23c-0.46,0.27-0.94,0.51-1.44,0.7c-0.36,0.16-0.79,0.03-1-0.3
		c-0.26-0.39-0.15-0.91,0.23-1.17c0.45-0.3,0.92-0.56,1.38-0.84c7.95-4.92,10.41-15.35,5.49-23.31c-1.36-2.2-3.2-4.05-5.39-5.42
		c-0.74-0.47-2.42-0.75-1.65-2s1.94,0,2.75,0.56c4.1,2.54,7.03,6.6,8.15,11.29C46.75,19.26,46.62,22.85,45.42,26.15z"/>
	<path d="M25,20.42v15.71c0.04,0.69,0.03,1.39-0.05,2.08c-0.47,2.41-2.54,3.23-4.46,1.71c-1.17-1-2.28-2.07-3.33-3.2
		c-2.4-2.39-4.77-4.81-7.21-7.17c-1.05-0.92-1.63-2.26-1.58-3.66c0.06-3.69,0-7.39,0-11.09c-0.06-1.32,0.45-2.59,1.41-3.5
		c3.36-3.28,6.66-6.62,10-9.94C20.43,0.59,21.35,0.1,22.36,0c1.59-0.05,2.59,1.15,2.59,3.32c0,3.85,0,7.71,0,11.56L25,20.42z"/>
	<path d="M6.59,12.07c-0.15,5.56-0.13,11,0,16.54c-1.3,0.16-2.6,0.16-3.9,0c-1.42,0.04-2.6-1.08-2.64-2.5c0-0.04,0-0.07,0-0.11
		c-0.1-3.77-0.1-7.55,0-11.32c-0.03-1.43,1.1-2.62,2.53-2.65c0.04,0,0.07,0,0.11,0c0.85-0.05,1.69-0.05,2.54,0
		C5.76,12.01,6.31,11.89,6.59,12.07z"/>
	<path class="st1" d="M39.82,20.18c0,4.38-2.1,8.5-5.65,11.07c-0.12,0.09-0.25,0.18-0.39,0.25c-0.7,0.36-1.47,1.3-2.15,0.22
		s0.45-1.29,1-1.7c2.49-1.6,4.24-4.11,4.89-7c1.06-4.65-0.35-8.47-3.88-11.58c-0.34-0.3-0.69-0.57-1.06-0.83
		c-0.6-0.43-1.62-0.76-1-1.71c0.7-1.11,1.49-0.2,2.13,0.22C37.48,11.54,39.78,15.7,39.82,20.18z"/>
	<path class="st2" d="M33.32,20.29c0.01,2.53-1.49,4.82-3.82,5.81c-0.64,0.26-1.37,0.66-1.8-0.17s0.22-1.17,0.91-1.47
		c2.27-0.87,3.4-3.42,2.52-5.69c-0.45-1.16-1.36-2.07-2.52-2.52c-0.67-0.29-1.4-0.55-1-1.42s1.13-0.53,1.78-0.29
		C31.72,15.51,33.27,17.76,33.32,20.29z"/>
</g>
</svg>
